<svg width="1003" height="747" viewBox="0 0 1003 747" fill="none" xmlns="http://www.w3.org/2000/svg">
<path d="M394.964 243.895C377.361 248.967 358.635 251.153 340.992 254.741C313.063 260.465 285.979 269.729 260.395 282.309C228.016 298.348 196.379 322.747 185.593 358.715C176.771 388.127 184.109 419.243 198.103 445.767C213.942 475.841 237.86 501.483 264.485 522.274C286.381 539.738 311.021 553.45 337.403 562.853C450.92 598.199 677.593 509.523 722.342 472.854C877.481 369.201 799.21 138.317 687.216 68.046C647.6 43.1854 595.713 34.444 551.866 52.7888C516.901 67.4245 488.792 98.4802 475.68 133.786C462.188 169.874 459.641 208.689 424.095 231.284C415.04 236.865 405.229 241.112 394.964 243.895Z" fill="#407BFF"/>
<path opacity="0.9" d="M394.964 243.895C377.361 248.967 358.635 251.153 340.992 254.741C313.063 260.465 285.979 269.729 260.395 282.309C228.016 298.348 196.379 322.747 185.593 358.715C176.771 388.127 184.109 419.243 198.103 445.767C213.942 475.841 237.86 501.483 264.485 522.274C286.381 539.738 311.021 553.45 337.403 562.853C450.92 598.199 677.593 509.523 722.342 472.854C877.481 369.201 799.21 138.317 687.216 68.046C647.6 43.1854 595.713 34.444 551.866 52.7888C516.901 67.4245 488.792 98.4802 475.68 133.786C462.188 169.874 459.641 208.689 424.095 231.284C415.04 236.865 405.229 241.112 394.964 243.895Z" fill="white"/>
<path d="M501.223 746.942C715.911 746.942 889.951 736.781 889.951 724.247C889.951 711.712 715.911 701.551 501.223 701.551C286.534 701.551 112.494 711.712 112.494 724.247C112.494 736.781 286.534 746.942 501.223 746.942Z" fill="#F5F5F5"/>
<path d="M261.558 664.28C249.529 671.638 133.907 724.247 240.827 724.247H387.345C387.345 724.247 340.41 716.408 359.457 701.531C295.641 661.273 261.558 664.28 261.558 664.28Z" fill="#407BFF"/>
<path opacity="0.6" d="M261.558 664.28C249.529 671.638 133.907 724.247 240.827 724.247H387.345C387.345 724.247 340.41 716.408 359.457 701.531C295.641 661.273 261.558 664.28 261.558 664.28Z" fill="white"/>
<path d="M518.545 242.592C518.084 249.93 517.382 257.187 516.54 264.445C515.698 271.703 514.916 278.981 513.894 286.218L512.41 297.105L510.726 307.971C509.623 315.229 508.32 322.467 506.977 329.764L506.596 331.97C504.31 339.889 501.624 346.986 498.917 354.024C496.211 361.061 493.243 368.058 490.256 374.975C487.269 381.892 484.061 388.648 480.753 395.385C477.445 402.121 474.016 408.777 470.207 415.433C468.849 417.77 466.718 419.56 464.182 420.493C461.646 421.427 458.863 421.447 456.314 420.549C453.765 419.651 451.609 417.891 450.218 415.574C448.827 413.257 448.288 410.527 448.695 407.855V407.735C449.837 400.417 451.301 393.119 452.704 385.881C454.108 378.644 455.712 371.446 457.235 364.269L461.907 342.957C463.431 335.96 464.894 328.922 466.017 322.407L465.616 324.612C466.057 317.454 466.438 310.257 466.939 303.059L467.641 292.233L468.443 281.427C468.924 274.209 469.586 266.991 470.227 259.794C470.869 252.596 471.631 245.359 472.533 238.221C473.319 232.3 476.372 226.914 481.047 223.196C485.723 219.479 491.659 217.72 497.605 218.288C503.551 218.857 509.046 221.709 512.932 226.246C516.819 230.782 518.795 236.649 518.445 242.612L518.545 242.592Z" fill="#803E3C"/>
<path d="M460.002 403.645L466.137 405.87C477.605 415.734 462.368 428.285 462.368 428.285L457.476 437.267C456.514 438.8 455.037 439.941 453.311 440.485C451.584 441.028 449.72 440.939 448.053 440.234L438.57 436.866C436.588 436.281 434.909 434.954 433.881 433.161C432.854 431.368 432.559 429.248 433.056 427.242L435.984 418.802C436.835 416.348 438.282 414.144 440.194 412.386L446.81 406.371C448.547 404.75 450.697 403.639 453.024 403.158C455.35 402.677 457.765 402.845 460.002 403.645Z" fill="#407BFF"/>
<path d="M443.943 410.361C448.715 391.676 451.963 370.965 451.963 370.965C451.963 370.965 470.167 367.236 480.452 375.556C490.737 383.877 487.97 390.793 487.97 390.793C487.97 390.793 471.611 412.707 466.458 416.857C458.94 414.13 443.943 410.361 443.943 410.361Z" fill="#407BFF"/>
<path d="M480.673 199.948C468.483 219.636 462.829 295.721 462.829 295.721C466.839 308.272 496.772 321.685 510.064 312.542C510.064 312.542 521.392 278.459 517.903 256.506C514.114 232.567 493.564 179.077 480.673 199.948Z" fill="#407BFF"/>
<g opacity="0.6">
<path d="M480.673 199.948C468.483 219.636 462.829 295.721 462.829 295.721C466.839 308.272 496.772 321.685 510.064 312.542C510.064 312.542 521.392 278.459 517.903 256.506C514.114 232.567 493.564 179.077 480.673 199.948Z" fill="white"/>
</g>
<path d="M468.904 318.377C480.632 325.835 500.08 329.825 507.398 325.133C510.295 321.95 512.515 318.212 513.924 314.145C515.334 310.079 515.903 305.768 515.598 301.475C506.155 294.117 464.734 285.897 459.04 286.94C457.369 293.662 456.694 300.592 457.035 307.51C460.195 311.916 464.237 315.617 468.904 318.377Z" fill="#407BFF"/>
<path opacity="0.5" d="M468.904 318.377C480.632 325.835 500.08 329.825 507.398 325.133C510.295 321.95 512.515 318.212 513.924 314.145C515.334 310.079 515.903 305.768 515.598 301.475C506.155 294.117 464.734 285.897 459.04 286.94C457.369 293.662 456.694 300.592 457.035 307.51C460.195 311.916 464.237 315.617 468.904 318.377Z" fill="white"/>
<path d="M513.072 671.077L547.215 671.398L544.428 711.736L515.878 711.496L513.072 671.077Z" fill="#7F3E3B"/>
<path opacity="0.2" d="M513.072 671.097L547.235 671.418L545.671 693.993L514.635 693.732L513.072 671.097Z" fill="black"/>
<path d="M559.866 545.992C579.574 499.879 615.542 419.002 585.769 376.438L494.306 403.244C494.306 403.244 482.136 516.921 485.344 547.335C490.557 596.736 510.746 686.795 510.746 686.795L549.841 686.896C549.841 686.896 562.753 601.467 559.866 545.992Z" fill="#263238"/>
<path opacity="0.2" d="M572.998 514.736C580.897 495.008 588.796 472.894 593.307 451.381C573.96 443.422 565.84 470.728 572.998 514.736Z" fill="black"/>
<path d="M548.618 724.207H539.596L537.732 721.199L533.722 724.247H488.532C488.34 720.986 489.099 717.741 490.717 714.904C490.717 714.904 504.751 711.736 510.766 706.483C511.332 706.058 511.986 705.766 512.68 705.627C513.374 705.488 514.09 705.507 514.776 705.681C520.79 706.864 536.629 709.471 545.691 706.062C545.9 705.992 546.123 705.973 546.341 706.006C546.559 706.039 546.766 706.124 546.945 706.254C547.123 706.383 547.268 706.553 547.367 706.75C547.467 706.947 547.518 707.165 547.516 707.385C547.43 713.013 547.799 718.638 548.618 724.207Z" fill="#407BFF"/>
<path d="M682.104 665.945L712.659 655.018L732.166 693.131L706.644 702.313L682.104 665.945Z" fill="#7F3E3B"/>
<path opacity="0.2" d="M682.124 665.965L712.699 655.018L723.605 676.37L695.858 686.314L682.124 665.965Z" fill="black"/>
<path d="M677.172 528.489C679.919 476.723 678.275 375.977 654.878 358.073L552.107 386.142C552.107 386.142 581.779 491.699 597.036 537.01C613.296 585.308 689.261 682.806 689.261 682.806L723.585 669.092C723.585 669.092 697.201 573.74 677.172 528.489Z" fill="#263238"/>
<path d="M493.765 188.62C522.476 175.029 552.606 164.667 583.604 157.725C587.878 156.862 592.283 156.879 596.55 157.776C600.818 158.673 604.857 160.43 608.422 162.941C611.987 165.452 615.003 168.663 617.286 172.378C619.568 176.093 621.069 180.235 621.697 184.55C633.125 259.533 659.068 347.247 661.794 361.763C661.794 361.763 538.895 443.642 494.065 408.577C458.839 323.99 472.633 249.027 476.021 214.343C476.522 208.893 478.417 203.663 481.525 199.158C484.632 194.653 488.848 191.024 493.765 188.62Z" fill="#407BFF"/>
<path opacity="0.6" d="M493.765 188.62C522.476 175.029 552.606 164.667 583.604 157.725C587.878 156.862 592.283 156.879 596.55 157.776C600.818 158.673 604.857 160.43 608.422 162.941C611.987 165.452 615.003 168.663 617.286 172.378C619.568 176.093 621.069 180.235 621.697 184.55C633.125 259.533 659.068 347.247 661.794 361.763C661.794 361.763 538.895 443.642 494.065 408.577C458.839 323.99 472.633 249.027 476.021 214.343C476.522 208.893 478.417 203.663 481.525 199.158C484.632 194.653 488.848 191.024 493.765 188.62Z" fill="white"/>
<path d="M508.821 186.335C510.239 182.656 512.58 179.404 515.618 176.891C515.694 172.597 514.277 168.409 511.608 165.043L550.563 135.11C552.267 150.928 552.688 161.614 560.588 166.727C558.923 172.32 541.3 185.733 523.818 193.111C509.242 199.346 507.097 191.467 508.821 186.335Z" fill="#7F3E3B"/>
<path d="M556.337 162.396C556.538 166.406 538.293 185.914 518.906 194.916C526.663 196.566 534.108 199.443 540.96 203.436C540.96 203.436 561.109 190.866 564.597 162.456C561.129 160.07 556.337 162.396 556.337 162.396Z" fill="white"/>
<path d="M515.618 176.891C514.255 179.819 504.591 193.993 518.906 194.935C508.32 201.692 506.155 209.932 506.155 209.932C506.155 209.932 493.344 199.647 509.483 180.861C511.413 179.368 513.465 178.04 515.618 176.891Z" fill="white"/>
<path opacity="0.2" d="M512.51 166.266L544.849 152.372C538.514 167.148 524.359 176.952 515.598 175.047C515.324 171.907 514.262 168.886 512.51 166.266Z" fill="black"/>
<path d="M545.17 104.254C551.084 125.907 554.633 140.743 545.37 153.875C526.986 179.939 508.36 173.423 496.07 153.875C485.023 136.313 477.204 103.853 495.188 88.536C499.172 85.1365 503.955 82.8048 509.087 81.76C514.219 80.7151 519.533 80.9913 524.529 82.5625C529.525 84.1337 534.04 86.9485 537.651 90.7427C541.261 94.537 543.849 99.1863 545.17 104.254Z" fill="#7F3E3B"/>
<path d="M524.218 144.243C524.218 144.243 517.665 145.26 501.008 152.695C505.201 157.822 510.08 158.16 518.594 154.255C527.107 150.35 524.218 144.243 524.218 144.243Z" fill="#263238"/>
<path d="M523.408 144.415C523.54 145.177 523.473 145.96 523.212 146.689C522.951 147.417 522.506 148.065 521.92 148.57C516.989 150.768 511.853 152.471 506.587 153.656C505.739 153.922 504.834 153.945 503.975 153.721C503.115 153.498 502.336 153.037 501.726 152.391C508.694 149.074 515.952 146.404 523.408 144.415Z" fill="white"/>
<path d="M521.289 148.263C516.426 149.006 511.708 150.505 507.309 152.707C506.199 153.534 505.342 154.655 504.835 155.943C508.265 157.655 512.48 157.064 518.576 154.277C520.932 153.387 522.884 151.671 524.07 149.449C523.206 148.919 522.269 148.519 521.289 148.263Z" fill="white"/>
<path d="M547.756 119.471C536.549 125.967 531.376 123.481 531.376 123.481C531.376 123.481 537.231 110.83 535.887 104.996C531.657 110.51 523.978 109.006 523.978 109.006C523.978 109.006 533 99.3022 528.67 94.0695C514.876 105.337 486.066 93.9091 478.908 113.296C472.232 106.76 474.077 98.0792 476.583 92.9066C472.232 93.4078 465.776 93.2274 462.829 90.9017C475.159 88.2152 485.986 75.1834 498.075 73.5193C490.777 65.4998 498.336 62.4924 498.336 62.4924C498.336 62.4924 498.657 73.3389 512.51 70.3316C526.364 67.3242 540.839 64.4973 540.579 75.1834C559.645 74.0206 559.826 92.1247 558.322 99.0817C556.157 108.825 546.754 115.482 547.756 119.471Z" fill="#263238"/>
<path d="M557.68 121.256C557.471 126.362 555.32 131.196 551.666 134.769C546.874 139.159 541.762 134.889 540.839 128.233C539.997 122.218 541.481 112.755 547.375 110.951C553.27 109.146 558.001 114.76 557.68 121.256Z" fill="#7F3E3B"/>
<path d="M513.473 121.637C514.094 123.361 513.673 125.065 512.55 125.466C511.428 125.867 510.004 124.804 509.383 123.08C508.761 121.356 509.182 119.652 510.305 119.251C511.428 118.85 512.851 119.933 513.473 121.637Z" fill="#263238"/>
<path d="M495.368 128.493C495.99 130.198 495.589 131.922 494.466 132.303C493.344 132.684 491.92 131.641 491.299 129.917C490.677 128.193 491.078 126.489 492.201 126.108C493.323 125.727 494.747 126.769 495.368 128.493Z" fill="#263238"/>
<path d="M500.962 127.732L505.593 136.713C506.01 137.505 506.101 138.429 505.846 139.287C505.592 140.144 505.012 140.869 504.23 141.305C502.466 142.393 500.428 142.957 498.356 142.929C497.012 135.912 500.962 127.732 500.962 127.732Z" fill="#630F0F"/>
<path d="M515.071 115.222C515.198 115.089 515.286 114.924 515.325 114.744C515.366 114.609 515.381 114.467 515.367 114.326C515.353 114.186 515.311 114.049 515.244 113.925C515.177 113.8 515.085 113.691 514.975 113.602C514.865 113.514 514.738 113.448 514.602 113.409C512.968 112.895 511.235 112.777 509.547 113.067C507.859 113.357 506.264 114.046 504.895 115.076C504.789 115.167 504.701 115.278 504.637 115.403C504.573 115.528 504.535 115.664 504.524 115.804C504.514 115.944 504.531 116.084 504.574 116.218C504.618 116.351 504.688 116.474 504.78 116.58C504.968 116.793 505.232 116.925 505.515 116.948C505.799 116.972 506.081 116.885 506.301 116.705C507.393 115.907 508.658 115.38 509.993 115.168C511.329 114.955 512.695 115.064 513.98 115.484C514.169 115.54 514.369 115.545 514.561 115.499C514.752 115.453 514.928 115.358 515.071 115.222Z" fill="#263238"/>
<path d="M481.174 120.093C481.326 120.181 481.499 120.227 481.675 120.227C481.851 120.227 482.024 120.181 482.176 120.093C483.314 119.376 484.606 118.942 485.945 118.827C487.285 118.712 488.632 118.919 489.875 119.431C490.001 119.492 490.138 119.528 490.278 119.536C490.419 119.544 490.559 119.524 490.691 119.477C490.824 119.431 490.945 119.358 491.05 119.264C491.154 119.171 491.238 119.057 491.299 118.93C491.423 118.678 491.443 118.386 491.353 118.119C491.262 117.852 491.07 117.632 490.817 117.507C489.265 116.856 487.578 116.588 485.9 116.724C484.222 116.86 482.602 117.396 481.174 118.289C480.932 118.435 480.757 118.669 480.685 118.943C480.614 119.216 480.653 119.507 480.793 119.752C480.893 119.893 481.023 120.009 481.174 120.093Z" fill="#263238"/>
<path d="M741.288 697.702L734.291 700.188L730.823 698.183L728.818 702.193L686.555 717.169C684.733 714.561 683.728 711.469 683.668 708.288C683.668 708.288 693.893 702.073 697.822 695.056C697.92 694.779 698.091 694.534 698.317 694.347C698.543 694.16 698.816 694.038 699.105 693.993C703.837 693.632 719.896 688.319 727.655 682.465C727.884 682.325 728.139 682.233 728.405 682.193C728.671 682.154 728.941 682.169 729.201 682.236C729.461 682.303 729.705 682.422 729.918 682.585C730.131 682.749 730.309 682.953 730.442 683.187C733.496 688.42 737.134 693.29 741.288 697.702Z" fill="#407BFF"/>
<path opacity="0.6" d="M588.776 386.082C588.115 393.139 589.939 404.126 598.68 419.684C606.139 432.996 617.105 451.141 626.749 444.585L652.492 427.042C662.316 420.365 644.472 399.515 629.997 399.254C613.537 398.973 620.995 384.658 613.958 381.21C609.09 379.15 603.753 378.456 598.52 379.205L588.776 386.082Z" fill="white"/>
<path d="M641.766 407.394C641.585 407.253 641.946 407.494 641.766 407.394V407.394Z" fill="white"/>
<path d="M651.59 419.543C650.458 416.396 648.62 413.55 646.216 411.223C644.956 409.923 643.374 408.979 641.632 408.486C639.889 407.993 638.047 407.969 636.292 408.416C632.153 409.428 628.154 410.943 624.383 412.927C614.178 418.32 600.465 414.792 602.009 418.681C602.229 419.082 602.45 419.483 602.71 419.904C606.941 427.403 614.98 440.936 621.456 442.459C622.036 442.606 622.641 442.62 623.227 442.502C623.814 442.384 624.366 442.137 624.844 441.778L650.587 424.275C651.149 423.914 652.592 422.912 651.59 419.543Z" fill="white"/>
<path d="M596.043 377.746L586.99 383.854C585.979 384.536 585.713 385.909 586.395 386.919L588.427 389.931C589.109 390.942 590.481 391.209 591.492 390.527L600.545 384.419C601.556 383.737 601.822 382.365 601.14 381.354L599.108 378.342C598.426 377.331 597.054 377.064 596.043 377.746Z" fill="#263238"/>
<path d="M592.425 355.708C594.562 359.474 597.206 362.928 600.284 365.973C601.367 367.035 600.866 368.92 599.502 368.92C598.352 368.92 597.215 368.664 596.175 368.172C595.135 367.68 594.217 366.963 593.488 366.073C592.646 367.637 589.679 367.095 589.679 367.095C589.679 367.095 586.431 353.723 592.425 355.708Z" fill="#263238"/>
<path d="M571.394 371.707C571.394 371.707 579.594 371.707 586.631 381.11C586.737 381.268 586.874 381.402 587.034 381.505C587.194 381.609 587.373 381.678 587.56 381.71C587.748 381.742 587.94 381.735 588.125 381.691C588.31 381.646 588.484 381.564 588.636 381.451L595.011 377.12C595.283 376.936 595.48 376.662 595.569 376.346C595.657 376.03 595.63 375.694 595.493 375.396C593.768 371.647 588.696 359.076 594.009 355.467L598.4 352.48C599.349 351.834 600.002 350.837 600.216 349.709C600.431 348.581 600.188 347.414 599.543 346.465C598.896 345.516 597.9 344.863 596.772 344.649C595.644 344.434 594.477 344.677 593.528 345.322L575.985 357.231C569.389 361.682 567.384 365.732 571.394 371.707Z" fill="#407BFF"/>
<path d="M592.078 345.507L591.548 345.867C591.19 346.11 591.098 346.597 591.34 346.954L596.017 353.835C596.26 354.192 596.746 354.285 597.103 354.042L597.634 353.682C597.991 353.439 598.084 352.953 597.841 352.596L593.164 345.714C592.922 345.357 592.435 345.264 592.078 345.507Z" fill="#263238"/>
<path d="M638.538 354.425C638.209 354.425 637.886 354.345 637.596 354.191C637.305 354.037 637.058 353.814 636.874 353.542C627.13 339.187 614.82 331.97 602.269 333.193C601.737 333.246 601.206 333.086 600.793 332.747C600.379 332.409 600.117 331.92 600.064 331.388C600.011 330.857 600.171 330.326 600.509 329.912C600.848 329.498 601.337 329.236 601.868 329.183C615.903 327.82 629.576 335.659 640.182 351.237C640.482 351.675 640.596 352.215 640.498 352.738C640.4 353.261 640.099 353.723 639.66 354.024C639.336 354.268 638.944 354.408 638.538 354.425Z" fill="#407BFF"/>
<path d="M638.538 354.425C638.248 354.425 637.962 354.362 637.699 354.241C637.436 354.12 637.202 353.943 637.014 353.723C628.293 343.518 614.138 338.345 603.332 341.433C602.819 341.576 602.27 341.51 601.805 341.249C601.341 340.988 600.999 340.553 600.856 340.039C600.712 339.526 600.778 338.977 601.04 338.513C601.301 338.049 601.736 337.707 602.249 337.563C614.68 334.015 630.217 339.568 640.061 351.116C640.311 351.408 640.471 351.764 640.524 352.144C640.576 352.524 640.519 352.91 640.359 353.258C640.199 353.607 639.942 353.901 639.619 354.108C639.296 354.315 638.921 354.425 638.538 354.425Z" fill="#407BFF"/>
<path d="M638.538 354.425C638.098 354.421 637.671 354.28 637.315 354.024C624.704 344.42 614.419 342.716 604.976 348.63C604.524 348.915 603.977 349.008 603.457 348.89C602.936 348.771 602.484 348.451 602.199 347.999C601.915 347.547 601.821 347 601.94 346.48C602.058 345.959 602.379 345.507 602.831 345.222C613.898 338.305 625.626 340.09 639.741 350.816C640.163 351.138 640.44 351.614 640.512 352.14C640.583 352.667 640.443 353.2 640.122 353.623C639.937 353.869 639.698 354.069 639.423 354.208C639.149 354.348 638.846 354.421 638.538 354.425Z" fill="#407BFF"/>
<path d="M607.281 354.866C607.011 354.865 606.744 354.809 606.496 354.702C606.248 354.595 606.024 354.44 605.838 354.244C605.65 354.058 605.501 353.836 605.399 353.592C605.297 353.347 605.245 353.085 605.245 352.821C605.245 352.556 605.297 352.294 605.399 352.05C605.501 351.805 605.65 351.584 605.838 351.397C614.078 343.378 627.31 343.217 639.52 350.716C639.971 350.993 640.293 351.438 640.417 351.953C640.541 352.467 640.456 353.01 640.182 353.462C640.044 353.688 639.863 353.884 639.649 354.04C639.436 354.196 639.193 354.307 638.936 354.369C638.679 354.43 638.412 354.44 638.151 354.398C637.89 354.356 637.64 354.263 637.415 354.124C626.809 347.608 615.501 347.668 608.605 354.304C608.248 354.649 607.777 354.849 607.281 354.866Z" fill="#407BFF"/>
<path d="M638.538 354.425C638.104 354.425 637.682 354.284 637.335 354.024C621.296 342.175 616.865 327.178 613.978 314.066C613.919 313.808 613.911 313.541 613.956 313.28C614.001 313.019 614.097 312.769 614.238 312.546C614.38 312.322 614.564 312.129 614.781 311.977C614.998 311.825 615.243 311.717 615.501 311.66C616.02 311.547 616.562 311.643 617.009 311.929C617.456 312.215 617.772 312.666 617.887 313.184C620.634 325.614 624.804 339.769 639.721 350.816C640.056 351.067 640.304 351.417 640.43 351.817C640.556 352.217 640.553 352.646 640.423 353.044C640.292 353.443 640.04 353.79 639.702 354.037C639.364 354.285 638.957 354.42 638.538 354.425Z" fill="#407BFF"/>
<path d="M638.538 354.425C638.031 354.423 637.544 354.229 637.174 353.883C625.486 343.097 622.458 326.978 623.501 315.49C623.524 315.226 623.598 314.969 623.721 314.735C623.843 314.5 624.011 314.292 624.214 314.122C624.417 313.953 624.652 313.825 624.904 313.746C625.157 313.668 625.423 313.64 625.686 313.665C626.215 313.716 626.702 313.975 627.041 314.384C627.379 314.794 627.541 315.321 627.491 315.851C626.528 326.376 629.275 341.132 639.901 350.956C640.194 351.231 640.398 351.587 640.487 351.978C640.575 352.37 640.544 352.779 640.397 353.153C640.25 353.527 639.994 353.848 639.663 354.075C639.331 354.301 638.939 354.423 638.538 354.425Z" fill="#407BFF"/>
<path d="M638.538 354.425C638.214 354.424 637.896 354.345 637.61 354.195C637.324 354.045 637.078 353.828 636.894 353.563C626.729 339.027 625.426 327.238 632.764 316.472C633.064 316.033 633.526 315.732 634.049 315.634C634.572 315.537 635.112 315.65 635.55 315.951C635.983 316.251 636.281 316.709 636.378 317.227C636.476 317.745 636.366 318.28 636.072 318.717C629.796 327.94 631.1 338.285 640.182 351.277C640.484 351.713 640.601 352.252 640.507 352.774C640.413 353.296 640.116 353.76 639.68 354.064C639.345 354.298 638.946 354.424 638.538 354.425Z" fill="#407BFF"/>
<path d="M638.538 354.425C638.182 354.424 637.834 354.329 637.527 354.149C637.221 353.97 636.968 353.712 636.793 353.402C629.776 340.892 630.578 327.699 638.798 319.76C638.989 319.577 639.214 319.433 639.461 319.337C639.707 319.241 639.97 319.195 640.234 319.2C640.499 319.206 640.759 319.264 641.001 319.37C641.244 319.476 641.462 319.629 641.645 319.82C641.828 320.011 641.972 320.236 642.068 320.482C642.164 320.729 642.21 320.992 642.205 321.256C642.199 321.52 642.142 321.781 642.035 322.023C641.929 322.265 641.776 322.484 641.585 322.667C634.688 329.283 634.167 340.571 640.262 351.437C640.433 351.742 640.522 352.086 640.519 352.436C640.516 352.786 640.422 353.129 640.246 353.431C640.069 353.733 639.817 353.983 639.514 354.158C639.211 354.332 638.867 354.424 638.518 354.425H638.538Z" fill="#407BFF"/>
<path d="M686.054 401.88C685.57 402.357 684.918 402.624 684.239 402.624C683.56 402.624 682.909 402.357 682.425 401.88L637.114 354.725L640.803 351.177L686.134 398.332C686.576 398.822 686.814 399.462 686.799 400.122C686.784 400.782 686.517 401.411 686.054 401.88Z" fill="#263238"/>
<path d="M642.427 352.861L638.818 356.329C638.368 356.776 637.759 357.027 637.124 357.027C636.49 357.027 635.881 356.776 635.43 356.329C634.982 355.875 634.731 355.263 634.731 354.625C634.731 353.987 634.982 353.375 635.43 352.921L639.039 349.453C639.489 349.006 640.098 348.755 640.733 348.755C641.368 348.755 641.977 349.006 642.427 349.453C642.651 349.676 642.829 349.942 642.951 350.234C643.072 350.526 643.135 350.84 643.135 351.157C643.135 351.473 643.072 351.787 642.951 352.079C642.829 352.372 642.651 352.637 642.427 352.861Z" fill="white"/>
<path d="M488.452 397.429C487.289 403.083 486.607 410.02 488.452 413.87C488.588 414.166 488.782 414.433 489.023 414.653C489.265 414.873 489.547 415.043 489.855 415.153C524.5 427.363 607.181 412.286 667.428 370.283C667.754 370.06 668.021 369.761 668.206 369.411C668.391 369.062 668.489 368.674 668.491 368.278C668.671 362.825 664.722 352.42 662.717 347.528C662.582 347.199 662.376 346.905 662.115 346.665C661.854 346.424 661.543 346.244 661.205 346.137C660.866 346.03 660.509 345.999 660.157 346.045C659.805 346.091 659.467 346.214 659.168 346.405C645.976 354.745 597.016 389.41 540.759 397.089C510.846 401.098 496.652 396.808 491.459 395.505C491.134 395.419 490.796 395.402 490.464 395.454C490.133 395.506 489.816 395.626 489.533 395.807C489.25 395.988 489.008 396.226 488.822 396.505C488.636 396.784 488.51 397.099 488.452 397.429Z" fill="#407BFF"/>
<path d="M629.536 186.455L631.541 189.242L633.385 191.848C634.588 193.592 635.711 195.336 636.854 197.081C639.159 200.569 641.284 204.138 643.39 207.727C645.495 211.315 647.399 215.004 649.404 218.713C651.409 222.423 653.214 226.192 654.938 230.081C656.662 233.971 658.386 237.86 659.95 241.87C661.514 245.88 662.937 249.99 664.24 254.22C667.048 263.016 668.929 272.08 669.854 281.266L669.974 282.569C670.034 283.31 670.034 284.054 669.974 284.795C669.69 289.964 668.17 294.989 665.544 299.45C663.269 303.298 660.233 306.641 656.622 309.274C651.646 312.83 646.04 315.409 640.102 316.873C635.568 318.048 630.938 318.812 626.268 319.159C621.897 319.519 617.707 319.66 613.577 319.6C605.576 319.438 597.594 318.769 589.679 317.595C581.915 316.455 574.229 314.841 566.662 312.763C564.062 312.036 561.798 310.422 560.263 308.201C558.728 305.98 558.018 303.292 558.256 300.603C558.494 297.913 559.665 295.392 561.566 293.475C563.468 291.558 565.98 290.367 568.667 290.108H569.229C576.166 289.426 583.524 288.845 590.541 288.103C597.558 287.361 604.575 286.399 611.111 285.115C614.399 284.494 617.567 283.832 620.534 282.99C623.206 282.274 625.82 281.355 628.353 280.244C630.458 279.321 632.002 278.098 631.641 277.958C631.28 277.818 630.799 278.319 629.997 279.462C629.202 280.665 628.7 282.039 628.533 283.471L628.714 287.02C627.245 280.857 625.281 274.823 622.839 268.976C621.576 265.869 620.153 262.741 618.649 259.613C617.146 256.486 615.622 253.318 613.978 250.19C610.65 243.955 607.161 237.66 603.412 231.485C601.588 228.377 599.643 225.33 597.758 222.262L594.871 217.711L592.145 213.501L591.443 212.518C587.987 207.467 586.679 201.249 587.807 195.234C588.935 189.218 592.406 183.896 597.458 180.44C602.509 176.984 608.726 175.676 614.742 176.804C620.758 177.932 626.08 181.403 629.536 186.455Z" fill="#803E3C"/>
<path d="M599.322 158.386C646.637 181.122 665.163 259.393 665.163 259.393C659.509 274.069 633.606 280.504 617.847 276.535C617.847 276.535 588.937 238.442 581.759 217.43C573.92 194.474 577.208 147.76 599.322 158.386Z" fill="#407BFF"/>
<g opacity="0.6">
<path d="M599.322 158.386C646.637 181.122 665.163 259.393 665.163 259.393C659.509 274.069 633.606 280.504 617.847 276.535C617.847 276.535 588.937 238.442 581.759 217.43C573.92 194.474 577.208 147.76 599.322 158.386Z" fill="white"/>
</g>
<path d="M635.931 281.687C649.545 278.88 666.285 268.214 668.29 259.754C668.01 247.885 663.519 239.584 660.672 237.499C648.763 238.783 610.349 261.237 606.981 265.949C610.485 271.898 614.842 277.301 619.912 281.988C625.215 283.005 630.671 282.903 635.931 281.687Z" fill="#407BFF"/>
<path opacity="0.5" d="M635.931 281.687C649.545 278.88 666.285 268.214 668.29 259.754C668.01 247.885 663.519 239.584 660.672 237.499C648.763 238.783 610.349 261.237 606.981 265.949C610.485 271.898 614.842 277.301 619.912 281.988C625.215 283.005 630.671 282.903 635.931 281.687Z" fill="white"/>
<path d="M268.234 729.119H268.094C242.913 727.455 229.821 721.841 227.996 711.977C224.788 693.632 264.746 669.874 276.354 664.802C276.596 664.696 276.857 664.64 277.121 664.635C277.385 664.631 277.648 664.678 277.893 664.775C278.139 664.872 278.363 665.016 278.553 665.199C278.743 665.383 278.895 665.602 279.001 665.844C279.106 666.086 279.163 666.347 279.167 666.611C279.172 666.875 279.124 667.138 279.027 667.383C278.931 667.629 278.786 667.853 278.603 668.043C278.419 668.233 278.2 668.385 277.958 668.491C263.102 675.007 229.52 697.421 231.846 711.275C233.169 718.854 245.739 723.625 268.174 725.129C268.706 725.147 269.208 725.377 269.571 725.766C269.934 726.155 270.128 726.672 270.109 727.204C270.09 727.736 269.861 728.238 269.472 728.601C269.083 728.964 268.566 729.157 268.034 729.139L268.234 729.119Z" fill="#407BFF"/>
<path opacity="0.8" d="M268.234 729.119H268.094C242.913 727.455 229.821 721.841 227.996 711.977C224.788 693.632 264.746 669.874 276.354 664.802C276.596 664.696 276.857 664.64 277.121 664.635C277.385 664.631 277.648 664.678 277.893 664.775C278.139 664.872 278.363 665.016 278.553 665.199C278.743 665.383 278.895 665.602 279.001 665.844C279.106 666.086 279.163 666.347 279.167 666.611C279.172 666.875 279.124 667.138 279.027 667.383C278.931 667.629 278.786 667.853 278.603 668.043C278.419 668.233 278.2 668.385 277.958 668.491C263.102 675.007 229.52 697.421 231.846 711.275C233.169 718.854 245.739 723.625 268.174 725.129C268.706 725.147 269.208 725.377 269.571 725.766C269.934 726.155 270.128 726.672 270.109 727.204C270.09 727.736 269.861 728.238 269.472 728.601C269.083 728.964 268.566 729.157 268.034 729.139L268.234 729.119Z" fill="white"/>
<path d="M356.109 729.119C314.688 728.497 305.986 716.788 306.107 707.065C306.107 693.251 325.193 678.375 338.526 678.315C339.058 678.315 339.568 678.526 339.944 678.902C340.319 679.278 340.531 679.788 340.531 680.319C340.531 680.851 340.319 681.361 339.944 681.737C339.568 682.113 339.058 682.324 338.526 682.324C327.359 682.324 310.157 695.657 310.096 707.105C310.096 718.112 326.817 724.668 356.209 725.149C356.741 725.149 357.251 725.36 357.627 725.736C358.003 726.112 358.214 726.622 358.214 727.154C358.214 727.685 358.003 728.195 357.627 728.571C357.251 728.947 356.741 729.159 356.209 729.159L356.109 729.119Z" fill="#407BFF"/>
<path opacity="0.8" d="M356.109 729.119C314.688 728.497 305.986 716.788 306.107 707.065C306.107 693.251 325.193 678.375 338.526 678.315C339.058 678.315 339.568 678.526 339.944 678.902C340.319 679.278 340.531 679.788 340.531 680.319C340.531 680.851 340.319 681.361 339.944 681.737C339.568 682.113 339.058 682.324 338.526 682.324C327.359 682.324 310.157 695.657 310.096 707.105C310.096 718.112 326.817 724.668 356.209 725.149C356.741 725.149 357.251 725.36 357.627 725.736C358.003 726.112 358.214 726.622 358.214 727.154C358.214 727.685 358.003 728.195 357.627 728.571C357.251 728.947 356.741 729.159 356.209 729.159L356.109 729.119Z" fill="white"/>
<path d="M368.278 690.404L365.512 705.481C365.425 705.932 365.24 706.358 364.971 706.73C364.702 707.102 364.354 707.411 363.953 707.635C363.552 707.858 363.107 707.991 362.648 708.024C362.19 708.057 361.731 707.99 361.301 707.827L255.864 667.228C255.436 667.064 255.049 666.807 254.731 666.476C254.414 666.144 254.174 665.747 254.028 665.312C253.882 664.877 253.835 664.415 253.889 663.959C253.943 663.504 254.097 663.065 254.34 662.677L262.36 649.625C263.327 648.056 264.814 646.876 266.561 646.29C268.308 645.704 270.206 645.749 271.923 646.417L363.346 681.663C365.054 682.323 366.48 683.555 367.379 685.15C368.279 686.744 368.597 688.601 368.278 690.404Z" fill="#407BFF"/>
<path d="M606.279 197.462L579.413 240.386C578.897 241.204 578.079 241.786 577.137 242.003C576.194 242.221 575.204 242.058 574.381 241.549C573.565 241.037 572.984 240.222 572.766 239.283C572.548 238.344 572.711 237.357 573.218 236.537L600.044 193.612C600.556 192.796 601.371 192.215 602.31 191.997C603.249 191.779 604.236 191.942 605.056 192.449C605.883 192.952 606.476 193.762 606.705 194.702C606.935 195.642 606.781 196.635 606.279 197.462Z" fill="#407BFF"/>
<path d="M635.971 149.966C635.431 149.627 634.828 149.397 634.199 149.291C633.569 149.185 632.925 149.204 632.303 149.348C631.681 149.491 631.093 149.756 630.574 150.127C630.054 150.498 629.613 150.968 629.275 151.51L317.675 650.186L308.853 646.778C306.047 645.695 302.578 646.978 299.751 650.126L293.376 657.243L340.17 675.287V665.724C340.17 661.514 338.466 658.226 335.659 657.143L326.857 653.755L637.555 156.662C638.232 155.564 638.445 154.242 638.148 152.987C637.851 151.731 637.068 150.645 635.971 149.966Z" fill="#407BFF"/>
<path opacity="0.3" d="M635.971 149.966C635.431 149.627 634.828 149.397 634.199 149.291C633.569 149.185 632.925 149.204 632.303 149.348C631.681 149.491 631.093 149.756 630.574 150.127C630.054 150.498 629.613 150.968 629.275 151.51L317.675 650.186L308.853 646.778C306.047 645.695 302.578 646.978 299.751 650.126L293.376 657.243L340.17 675.287V665.724C340.17 661.514 338.466 658.226 335.659 657.143L326.857 653.755L637.555 156.662C638.232 155.564 638.445 154.242 638.148 152.987C637.851 151.731 637.068 150.645 635.971 149.966Z" fill="white"/>
<path d="M404.901 515.664L361.416 585.255C360.818 586.213 361.109 587.474 362.067 588.073L366.98 591.143C367.938 591.742 369.2 591.451 369.798 590.493L413.284 520.902C413.882 519.944 413.591 518.682 412.633 518.084L407.719 515.013C406.762 514.415 405.5 514.706 404.901 515.664Z" fill="#407BFF"/>
<path opacity="0.5" d="M404.901 515.664L361.416 585.255C360.818 586.213 361.109 587.474 362.067 588.073L366.98 591.143C367.938 591.742 369.2 591.451 369.798 590.493L413.284 520.902C413.882 519.944 413.591 518.682 412.633 518.084L407.719 515.013C406.762 514.415 405.5 514.706 404.901 515.664Z" fill="white"/>
<path d="M580.476 294.158L577.409 308.974C568.948 322.406 553.55 308.553 553.55 308.553L543.526 304.884C541.786 304.121 540.373 302.765 539.54 301.057C538.706 299.35 538.506 297.402 538.975 295.561L540.98 285.196C541.261 283.038 542.374 281.075 544.082 279.727C545.79 278.378 547.958 277.751 550.122 277.978L559.324 279.702C562.004 280.205 564.518 281.362 566.642 283.071L580.476 294.158Z" fill="#407BFF"/>
<path d="M567.905 288.704C579.738 287.847 591.512 286.321 603.171 284.133C610.509 291.15 614.439 314.988 611.091 322.447C588.255 324.01 567.083 313.545 567.083 313.545C567.083 313.545 559.625 292.935 567.905 288.704Z" fill="#407BFF"/>
<path d="M273.587 690.224C247.343 684.951 216.468 665.303 204.76 646.397L206.464 645.354C217.731 663.519 248.566 683.167 273.968 688.259L273.587 690.224Z" fill="#407BFF"/>
<path d="M380.789 707.526L380.548 705.521C392.036 704.038 417.759 695.497 430.29 687.918L431.332 689.642C418.601 697.321 392.477 706.022 380.789 707.526Z" fill="#407BFF"/>
<path d="M203.416 674.626C192.622 666.672 183.357 656.83 176.07 645.575L177.794 644.532C184.889 655.562 193.939 665.204 204.499 672.982L203.416 674.626Z" fill="#407BFF"/>
<path d="M406.111 691.687L405.369 689.823C412.852 686.647 419.698 682.143 425.578 676.53L426.982 677.954C420.93 683.778 413.854 688.434 406.111 691.687Z" fill="#407BFF"/>
<path d="M152.151 693.692C161.009 693.692 168.19 684.788 168.19 673.804C168.19 662.819 161.009 653.915 152.151 653.915C143.293 653.915 136.112 662.819 136.112 673.804C136.112 684.788 143.293 693.692 152.151 693.692Z" fill="#407BFF"/>
<path opacity="0.8" d="M152.151 693.692C161.009 693.692 168.19 684.788 168.19 673.804C168.19 662.819 161.009 653.915 152.151 653.915C143.293 653.915 136.112 662.819 136.112 673.804C136.112 684.788 143.293 693.692 152.151 693.692Z" fill="white"/>
<path d="M290.048 632.403C301.696 632.403 311.139 620.689 311.139 606.239C311.139 591.789 301.696 580.075 290.048 580.075C278.399 580.075 268.956 591.789 268.956 606.239C268.956 620.689 278.399 632.403 290.048 632.403Z" fill="#407BFF"/>
<path opacity="0.8" d="M290.048 632.403C301.696 632.403 311.139 620.689 311.139 606.239C311.139 591.789 301.696 580.075 290.048 580.075C278.399 580.075 268.956 591.789 268.956 606.239C268.956 620.689 278.399 632.403 290.048 632.403Z" fill="white"/>
<path d="M217.751 632.383C222.978 632.383 227.214 627.131 227.214 620.654C227.214 614.176 222.978 608.925 217.751 608.925C212.525 608.925 208.288 614.176 208.288 620.654C208.288 627.131 212.525 632.383 217.751 632.383Z" fill="#407BFF"/>
<path opacity="0.8" d="M217.751 632.383C222.978 632.383 227.214 627.131 227.214 620.654C227.214 614.176 222.978 608.925 217.751 608.925C212.525 608.925 208.288 614.176 208.288 620.654C208.288 627.131 212.525 632.383 217.751 632.383Z" fill="white"/>
<path d="M393.259 664.24C386.162 665.864 385.099 667.167 383.796 675.969C382.493 667.167 381.431 665.944 374.333 664.24C381.431 662.616 382.493 661.293 383.796 652.492C385.099 661.293 386.162 662.616 393.259 664.24Z" fill="#407BFF"/>
<path opacity="0.8" d="M393.259 664.24C386.162 665.864 385.099 667.167 383.796 675.969C382.493 667.167 381.431 665.944 374.333 664.24C381.431 662.616 382.493 661.293 383.796 652.492C385.099 661.293 386.162 662.616 393.259 664.24Z" fill="white"/>
<path d="M525.963 395.545C517.743 396.066 507.077 393.54 505.333 396.347C503.588 399.154 503.087 420.025 510.886 422.17C518.685 424.315 540.218 421.869 550.443 420.666C556.097 420.005 555.575 392.016 548.438 392.598C541.3 393.179 535.105 394.963 525.963 395.545Z" fill="#407BFF"/>
<path opacity="0.3" d="M525.963 395.545C517.743 396.066 507.077 393.54 505.333 396.347C503.588 399.154 503.087 420.025 510.886 422.17C518.685 424.315 540.218 421.869 550.443 420.666C556.097 420.005 555.575 392.016 548.438 392.598C541.3 393.179 535.105 394.963 525.963 395.545Z" fill="white"/>
<path d="M767.873 585.909C770.215 585.912 772.518 586.51 774.566 587.646C776.614 588.782 778.34 590.42 779.582 592.405C780.952 591.252 782.623 590.512 784.399 590.275C786.174 590.037 787.98 590.31 789.606 591.062C791.79 588.554 794.708 586.796 797.946 586.037C801.184 585.277 804.579 585.556 807.65 586.832C810.78 582.375 815.249 579.031 820.408 577.286C825.567 575.541 831.147 575.485 836.34 577.126C841.533 578.768 846.068 582.021 849.287 586.414C852.506 590.807 854.241 596.111 854.241 601.557C854.241 607.004 852.506 612.308 849.287 616.701C846.068 621.094 841.533 624.347 836.34 625.989C831.147 627.63 825.567 627.574 820.408 625.829C815.249 624.084 810.78 620.74 807.65 616.283C805.743 617.069 803.699 617.471 801.636 617.466C798.758 617.477 795.932 616.705 793.459 615.232C790.987 613.759 788.962 611.642 787.601 609.106C786.943 609.25 786.27 609.317 785.596 609.306C783.391 609.28 781.265 608.486 779.582 607.061C778.305 609.097 776.519 610.765 774.401 611.9C772.282 613.035 769.905 613.597 767.502 613.532C765.1 613.466 762.756 612.775 760.702 611.527C758.649 610.278 756.957 608.516 755.793 606.413C754.629 604.31 754.034 601.94 754.066 599.537C754.098 597.134 754.757 594.781 755.977 592.711C757.197 590.64 758.936 588.924 761.022 587.731C763.108 586.538 765.47 585.91 767.873 585.909Z" fill="#407BFF"/>
<path opacity="0.9" d="M767.873 585.909C770.215 585.912 772.518 586.51 774.566 587.646C776.614 588.782 778.34 590.42 779.582 592.405C780.952 591.252 782.623 590.512 784.399 590.275C786.174 590.037 787.98 590.31 789.606 591.062C791.79 588.554 794.708 586.796 797.946 586.037C801.184 585.277 804.579 585.556 807.65 586.832C810.78 582.375 815.249 579.031 820.408 577.286C825.567 575.541 831.147 575.485 836.34 577.126C841.533 578.768 846.068 582.021 849.287 586.414C852.506 590.807 854.241 596.111 854.241 601.557C854.241 607.004 852.506 612.308 849.287 616.701C846.068 621.094 841.533 624.347 836.34 625.989C831.147 627.63 825.567 627.574 820.408 625.829C815.249 624.084 810.78 620.74 807.65 616.283C805.743 617.069 803.699 617.471 801.636 617.466C798.758 617.477 795.932 616.705 793.459 615.232C790.987 613.759 788.962 611.642 787.601 609.106C786.943 609.25 786.27 609.317 785.596 609.306C783.391 609.28 781.265 608.486 779.582 607.061C778.305 609.097 776.519 610.765 774.401 611.9C772.282 613.035 769.905 613.597 767.502 613.532C765.1 613.466 762.756 612.775 760.702 611.527C758.649 610.278 756.957 608.516 755.793 606.413C754.629 604.31 754.034 601.94 754.066 599.537C754.098 597.134 754.757 594.781 755.977 592.711C757.197 590.64 758.936 588.924 761.022 587.731C763.108 586.538 765.47 585.91 767.873 585.909Z" fill="white"/>
<path d="M755.844 610.73H852.359C853.089 610.732 853.81 610.889 854.473 611.193C855.137 611.496 855.728 611.938 856.207 612.489C856.685 613.04 857.04 613.687 857.248 614.386C857.456 615.085 857.512 615.821 857.412 616.544L842.616 719.876C842.442 721.088 841.838 722.196 840.914 722.999C839.99 723.802 838.807 724.245 837.583 724.247H770.62C769.396 724.245 768.214 723.802 767.289 722.999C766.365 722.196 765.761 721.088 765.588 719.876L750.812 616.544C750.708 615.822 750.761 615.087 750.967 614.388C751.172 613.688 751.525 613.041 752.002 612.49C752.479 611.938 753.069 611.496 753.732 611.192C754.395 610.889 755.115 610.731 755.844 610.73Z" fill="#407BFF"/>
<path opacity="0.6" d="M755.844 610.73H852.359C853.089 610.732 853.81 610.889 854.473 611.193C855.137 611.496 855.728 611.938 856.207 612.489C856.685 613.04 857.04 613.687 857.248 614.386C857.456 615.085 857.512 615.821 857.412 616.544L842.616 719.876C842.442 721.088 841.838 722.196 840.914 722.999C839.99 723.802 838.807 724.245 837.583 724.247H770.62C769.396 724.245 768.214 723.802 767.289 722.999C766.365 722.196 765.761 721.088 765.588 719.876L750.812 616.544C750.708 615.822 750.761 615.087 750.967 614.388C751.172 613.688 751.525 613.041 752.002 612.49C752.479 611.938 753.069 611.496 753.732 611.192C754.395 610.889 755.115 610.731 755.844 610.73Z" fill="white"/>
<path d="M752.937 615.842H855.427C856.781 615.837 858.078 615.297 859.036 614.339C859.994 613.381 860.534 612.084 860.539 610.73C860.539 609.372 860.001 608.07 859.043 607.108C858.085 606.146 856.785 605.603 855.427 605.597H752.937C751.579 605.603 750.279 606.146 749.32 607.108C748.362 608.07 747.824 609.372 747.824 610.73C747.83 612.084 748.37 613.381 749.328 614.339C750.285 615.297 751.582 615.837 752.937 615.842Z" fill="#407BFF"/>
<path d="M829.062 661.213C802.297 661.213 771.322 639.48 759.994 612.755C759.786 612.516 759.637 612.231 759.56 611.924C759.483 611.616 759.48 611.295 759.551 610.986C759.622 610.677 759.765 610.39 759.969 610.147C760.173 609.904 760.432 609.713 760.724 609.59C761.016 609.466 761.333 609.414 761.649 609.437C761.965 609.46 762.271 609.557 762.542 609.721C762.813 609.885 763.042 610.111 763.209 610.381C763.376 610.65 763.476 610.955 763.503 611.271C774.289 636.693 803.701 657.384 829.062 657.384C840.31 657.384 849.232 653.254 854.204 645.755C859.757 637.355 859.898 625.346 854.565 612.755C854.356 612.516 854.207 612.231 854.13 611.924C854.053 611.616 854.05 611.295 854.121 610.986C854.193 610.677 854.336 610.39 854.54 610.147C854.744 609.904 855.002 609.713 855.294 609.59C855.586 609.466 855.903 609.414 856.219 609.437C856.536 609.46 856.842 609.557 857.113 609.721C857.384 609.885 857.613 610.111 857.78 610.381C857.946 610.65 858.047 610.955 858.073 611.271C863.907 625.045 863.667 638.377 857.392 647.861C851.698 656.462 841.633 661.213 829.062 661.213Z" fill="#407BFF"/>
<path d="M824.692 663.619L844.079 661.614C845.411 661.434 846.644 660.812 847.582 659.849C848.519 658.886 849.107 657.637 849.252 656.301C849.32 655.71 849.251 655.11 849.051 654.55C848.85 653.989 848.522 653.482 848.093 653.069C847.665 652.656 847.146 652.347 846.579 652.167C846.011 651.987 845.41 651.94 844.821 652.031L825.414 654.036C824.082 654.216 822.849 654.837 821.911 655.8C820.974 656.763 820.386 658.012 820.241 659.348C820.176 659.941 820.248 660.541 820.451 661.101C820.655 661.661 820.984 662.167 821.414 662.58C821.845 662.993 822.364 663.301 822.932 663.481C823.5 663.661 824.102 663.709 824.692 663.619Z" fill="#263238"/>
</svg>
